<svg width="218" height="46" viewBox="0 0 218 46" fill="none" xmlns="http://www.w3.org/2000/svg">
<g clip-path="url(#clip0_6_43)">
<path d="M23 1.35294L24.3529 9.3252L23 17.2974L8.12107 16.509C7.97027 8.19179 14.6886 1.35294 23 1.35294Z" fill="#90CC1C"/>
<path d="M37.8789 16.5089L23 17.2974C23 16.8476 23 1.80266 23 1.35294C31.2787 1.35294 38.0304 8.15878 37.8789 16.5089Z" fill="#2AAC6B"/>
<path d="M8.12107 16.5089C8.12107 16.5089 16.2387 29.5618 16.2387 29.4911C16.2379 29.5368 20.0235 35.2667 20.0235 35.2667L23 42.2321C20.603 43.798 17.804 44.6471 14.8824 44.6471C6.6764 44.6471 0 37.9711 0 29.7647C0 24.0336 3.26582 18.9954 8.12107 16.5089Z" fill="#FF4E8D"/>
<path d="M37.8789 16.5089C42.7371 18.9968 46 24.0366 46 29.7647C46 37.9706 39.324 44.6471 31.1176 44.6471C28.1968 44.6471 25.3977 43.7985 23 42.2321L28.8026 28.0209L37.8789 16.5089Z" fill="#7000FE"/>
<path d="M23 17.2974L16.2387 29.4911C11.4119 27.0191 8.22201 22.0719 8.12108 16.5088C12.7785 14.1236 18.4715 14.3388 23 17.2974Z" fill="#FFDA2D"/>
<path d="M29.7613 29.4911L23 17.2974C27.4784 14.3715 33.1673 14.0958 37.8789 16.5089C37.7782 22.0626 34.5965 27.0149 29.7613 29.4911Z" fill="#4BB9EC"/>
<path d="M16.2387 29.4911C16.3305 24.4352 18.9635 19.9347 23 17.2974L24.3529 24.2075L23 31.1177L19.5224 31.749L16.2387 29.4911Z" fill="#FDBF00"/>
<path d="M29.7613 29.4911L26.4776 31.5912L23 31.1177C23 30.3504 23 18.0646 23 17.2974C27.0356 19.9341 29.6696 24.434 29.7613 29.4911Z" fill="#FF9721"/>
<path d="M23 42.2321C18.768 39.4672 16.144 34.7127 16.2387 29.4911C18.3308 30.5626 20.6362 31.1177 23 31.1177L24.3529 36.6748L23 42.2321Z" fill="#FF7B4A"/>
<path d="M29.7613 29.4911C29.8561 34.7207 27.2252 39.4715 23 42.2321C23 40.888 23 32.4706 23 31.1177C25.3599 31.1177 27.6657 30.5643 29.7613 29.4911Z" fill="#AE34E8"/>
</g>
<path d="M56.52 27.72V22.84H62.6C63.3733 22.84 64.08 22.68 64.72 22.36C65.36 22.04 65.8667 21.5733 66.24 20.96C66.6133 20.3467 66.8 19.6 66.8 18.72C66.8 17.8667 66.6133 17.1333 66.24 16.52C65.8667 15.9067 65.36 15.44 64.72 15.12C64.08 14.8 63.3733 14.64 62.6 14.64H56.52V9.76H63.52C65.3067 9.76 66.92 10.12 68.36 10.84C69.8 11.56 70.9333 12.6 71.76 13.96C72.6133 15.2933 73.04 16.88 73.04 18.72C73.04 20.56 72.6133 22.16 71.76 23.52C70.9333 24.8533 69.8 25.8933 68.36 26.64C66.92 27.36 65.3067 27.72 63.52 27.72H56.52ZM51.72 38V9.76H58V38H51.72ZM76.2772 38V18.56H82.3972V38H76.2772ZM82.3972 27.32L79.8372 25.32C80.3439 23.0533 81.1972 21.2933 82.3972 20.04C83.5972 18.7867 85.2639 18.16 87.3972 18.16C88.3305 18.16 89.1439 18.3067 89.8372 18.6C90.5572 18.8667 91.1839 19.2933 91.7172 19.88L88.0772 24.48C87.8105 24.1867 87.4772 23.96 87.0772 23.8C86.6772 23.64 86.2239 23.56 85.7172 23.56C84.7039 23.56 83.8905 23.88 83.2772 24.52C82.6905 25.1333 82.3972 26.0667 82.3972 27.32ZM93.3475 38V18.56H99.4675V38H93.3475ZM96.4275 15.88C95.4675 15.88 94.6675 15.56 94.0275 14.92C93.4142 14.2533 93.1075 13.4533 93.1075 12.52C93.1075 11.56 93.4142 10.76 94.0275 10.12C94.6675 9.48 95.4675 9.16 96.4275 9.16C97.3875 9.16 98.1742 9.48 98.7875 10.12C99.4008 10.76 99.7075 11.56 99.7075 12.52C99.7075 13.4533 99.4008 14.2533 98.7875 14.92C98.1742 15.56 97.3875 15.88 96.4275 15.88ZM116.617 38V26.92C116.617 25.9067 116.297 25.0933 115.657 24.48C115.044 23.84 114.257 23.52 113.297 23.52C112.631 23.52 112.044 23.6667 111.537 23.96C111.031 24.2267 110.631 24.6267 110.337 25.16C110.044 25.6667 109.897 26.2533 109.897 26.92L107.537 25.76C107.537 24.24 107.871 22.9067 108.537 21.76C109.204 20.6133 110.124 19.7333 111.297 19.12C112.497 18.48 113.844 18.16 115.337 18.16C116.777 18.16 118.044 18.5067 119.137 19.2C120.257 19.8667 121.137 20.76 121.777 21.88C122.417 23 122.737 24.2267 122.737 25.56V38H116.617ZM103.777 38V18.56H109.897V38H103.777ZM129.193 38V10.52H135.313V38H129.193ZM124.793 23.76V18.56H139.713V23.76H124.793ZM155.25 38V26.92C155.25 25.9067 154.93 25.0933 154.29 24.48C153.677 23.84 152.89 23.52 151.93 23.52C151.263 23.52 150.677 23.6667 150.17 23.96C149.663 24.2267 149.263 24.6267 148.97 25.16C148.677 25.6667 148.53 26.2533 148.53 26.92L146.17 25.76C146.17 24.24 146.503 22.9067 147.17 21.76C147.837 20.6133 148.757 19.7333 149.93 19.12C151.13 18.48 152.477 18.16 153.97 18.16C155.41 18.16 156.677 18.5067 157.77 19.2C158.89 19.8667 159.77 20.76 160.41 21.88C161.05 23 161.37 24.2267 161.37 25.56V38H155.25ZM142.41 38V18.56H148.53V38H142.41ZM174.661 38.44C172.661 38.44 170.847 38 169.221 37.12C167.621 36.2133 166.354 34.9867 165.421 33.44C164.487 31.8933 164.021 30.16 164.021 28.24C164.021 26.32 164.487 24.6 165.421 23.08C166.354 21.56 167.621 20.36 169.221 19.48C170.821 18.5733 172.634 18.12 174.661 18.12C176.687 18.12 178.501 18.56 180.101 19.44C181.701 20.32 182.967 21.5333 183.901 23.08C184.834 24.6 185.301 26.32 185.301 28.24C185.301 30.16 184.834 31.8933 183.901 33.44C182.967 34.9867 181.701 36.2133 180.101 37.12C178.501 38 176.687 38.44 174.661 38.44ZM174.661 32.88C175.541 32.88 176.314 32.6933 176.981 32.32C177.647 31.92 178.154 31.3733 178.501 30.68C178.874 29.96 179.061 29.1467 179.061 28.24C179.061 27.3333 178.874 26.5467 178.501 25.88C178.127 25.1867 177.607 24.6533 176.941 24.28C176.301 23.88 175.541 23.68 174.661 23.68C173.807 23.68 173.047 23.88 172.381 24.28C171.714 24.6533 171.194 25.1867 170.821 25.88C170.447 26.5733 170.261 27.3733 170.261 28.28C170.261 29.16 170.447 29.96 170.821 30.68C171.194 31.3733 171.714 31.92 172.381 32.32C173.047 32.6933 173.807 32.88 174.661 32.88ZM192.717 38L185.997 18.56H191.997L196.157 32.68L194.397 32.72L198.997 18.56H203.957L208.597 32.72L206.797 32.68L210.997 18.56H216.997L210.277 38H205.277L200.757 24.56H202.277L197.677 38H192.717Z" fill="white"/>
<defs>
<clipPath id="clip0_6_43">
<rect width="46" height="46" fill="white"/>
</clipPath>
</defs>
</svg>
