<svg width="46" height="46" viewBox="0 0 46 46" fill="none" xmlns="http://www.w3.org/2000/svg">
<g clip-path="url(#clip0_2_3)">
<path d="M23 1.35294L24.3529 9.32519L23 17.2974L8.12107 16.5089C7.97027 8.19178 14.6886 1.35294 23 1.35294Z" fill="#90CC1C"/>
<path d="M37.8789 16.5089L23 17.2973C23 16.8476 23 1.80265 23 1.35294C31.2787 1.35294 38.0304 8.15877 37.8789 16.5089Z" fill="#2AAC6B"/>
<path d="M8.12107 16.5089C8.12107 16.5089 16.2387 29.5618 16.2387 29.4911C16.2379 29.5368 20.0235 35.2667 20.0235 35.2667L23 42.2321C20.603 43.798 17.804 44.647 14.8824 44.647C6.6764 44.647 0 37.9711 0 29.7647C0 24.0335 3.26582 18.9954 8.12107 16.5089Z" fill="#FF4E8D"/>
<path d="M37.8789 16.5089C42.7371 18.9968 46 24.0366 46 29.7647C46 37.9706 39.324 44.647 31.1176 44.647C28.1968 44.647 25.3977 43.7985 23 42.2321L28.8026 28.0209L37.8789 16.5089Z" fill="#7000FE"/>
<path d="M23 17.2973L16.2387 29.491C11.4119 27.0191 8.22201 22.0719 8.12108 16.5088C12.7785 14.1236 18.4715 14.3388 23 17.2973Z" fill="#FFDA2D"/>
<path d="M29.7613 29.4911L23 17.2973C27.4784 14.3715 33.1673 14.0958 37.8789 16.5088C37.7782 22.0626 34.5965 27.0149 29.7613 29.4911Z" fill="#4BB9EC"/>
<path d="M16.2387 29.4911C16.3305 24.4352 18.9635 19.9347 23 17.2974L24.3529 24.2075L23 31.1176L19.5224 31.749L16.2387 29.4911Z" fill="#FDBF00"/>
<path d="M29.7613 29.4911L26.4776 31.5912L23 31.1176C23 30.3504 23 18.0646 23 17.2973C27.0356 19.9341 29.6696 24.434 29.7613 29.4911Z" fill="#FF9721"/>
<path d="M23 42.2321C18.768 39.4672 16.144 34.7127 16.2387 29.4911C18.3308 30.5626 20.6362 31.1176 23 31.1176L24.3529 36.6748L23 42.2321Z" fill="#FF7B4A"/>
<path d="M29.7613 29.4911C29.8561 34.7207 27.2252 39.4715 23 42.2321C23 40.888 23 32.4706 23 31.1176C25.3599 31.1176 27.6657 30.5643 29.7613 29.4911Z" fill="#AE34E8"/>
</g>
<defs>
<clipPath id="clip0_2_3">
<rect width="46" height="46" fill="white"/>
</clipPath>
</defs>
</svg>
