<svg width="59" height="59" viewBox="0 0 59 59" fill="none" xmlns="http://www.w3.org/2000/svg">
<g clip-path="url(#clip0_3_92)">
<path fill-rule="evenodd" clip-rule="evenodd" d="M20.211 36.0912H32.7078C33.222 36.0912 33.6393 35.6739 33.6393 35.1597C33.6393 34.6455 33.222 34.2281 32.7078 34.2281H20.211C19.6968 34.2281 19.2794 34.6455 19.2794 35.1597C19.2794 35.6739 19.6967 36.0912 20.211 36.0912Z" fill="#6F00FD"/>
<path fill-rule="evenodd" clip-rule="evenodd" d="M28.0753 35.1596V57.5876C28.0753 58.1019 28.4926 58.5192 29.0068 58.5192C29.5204 58.5192 29.9383 58.1018 29.9383 57.5876V35.1596C29.9383 34.6453 29.5204 34.2281 29.0068 34.2281C28.4926 34.2281 28.0753 34.6454 28.0753 35.1596Z" fill="#6F00FD"/>
<path fill-rule="evenodd" clip-rule="evenodd" d="M8.12522 0.480682C4.49954 0.480682 1.55511 3.42511 1.55511 7.05137C1.55511 10.6776 4.49954 13.6215 8.12522 13.6215C11.7516 13.6215 14.696 10.6777 14.696 7.05137C14.696 3.42501 11.7516 0.480682 8.12522 0.480682ZM8.12522 2.34384C10.7237 2.34384 12.8328 4.45298 12.8328 7.05137C12.8328 9.64927 10.7237 11.7583 8.12522 11.7583C5.52732 11.7583 3.41827 9.64927 3.41827 7.05137C3.41827 4.45289 5.52742 2.34384 8.12522 2.34384Z" fill="#6F00FD"/>
<path fill-rule="evenodd" clip-rule="evenodd" d="M50.8748 0.480682C47.2484 0.480682 44.304 3.42511 44.304 7.05137C44.304 10.6776 47.2484 13.6215 50.8748 13.6215C54.5005 13.6215 57.4449 10.6777 57.4449 7.05137C57.4449 3.42501 54.5005 0.480682 50.8748 0.480682ZM50.8748 2.34384C53.4727 2.34384 55.5817 4.45298 55.5817 7.05137C55.5817 9.64927 53.4727 11.7583 50.8748 11.7583C48.2763 11.7583 46.1671 9.64927 46.1671 7.05137C46.1671 4.45289 48.2763 2.34384 50.8748 2.34384Z" fill="#6F00FD"/>
<path fill-rule="evenodd" clip-rule="evenodd" d="M13.2601 26.989C13.4142 27.2996 13.7334 27.5063 14.0942 27.5063L14.4402 27.4392L23.0181 24.0104C24.3384 23.4832 25.8383 24.126 26.3662 25.4463C26.8935 26.7661 26.2501 28.2659 24.9304 28.7938L13.6018 33.3218C12.5193 33.7547 11.2933 33.4044 10.5996 32.4952C10.3574 32.1778 9.93937 32.0499 9.56061 32.1778C9.18242 32.3057 8.92777 32.661 8.92777 33.0604V37.7388C8.92777 38.212 9.28237 38.6095 9.75194 38.6642L17.2922 39.5349C19.074 39.7405 20.4191 41.2496 20.4191 43.0439V57.5877C20.4191 58.102 20.8365 58.5192 21.3507 58.5192C21.865 58.5192 22.2822 58.1019 22.2822 57.5877V43.0439C22.2822 40.3032 20.2278 37.9984 17.5057 37.6842L10.7908 36.9085V34.9634C11.8653 35.4571 13.1273 35.518 14.293 35.0522L25.6222 30.5241C27.8965 29.6143 29.0052 27.0295 28.0959 24.7545C27.1867 22.4796 24.6019 21.371 22.327 22.2803L14.4793 25.4172L9.97113 18.0385C9.33459 16.9964 8.29678 16.2629 7.1025 16.0101C7.06587 16.0027 7.02924 15.9946 6.99193 15.9871C5.74048 15.7225 4.43563 16.0107 3.41214 16.7777C2.38864 17.5453 1.74586 18.7166 1.64893 19.9922C1.10114 27.2002 0.00253292 41.6459 0.00253292 41.6459C0.00058452 41.6695 0 41.693 0 41.7167C0 44.4543 2.05011 46.7571 4.76842 47.0751L11.4913 47.9433V57.5876C11.4913 58.1019 11.9086 58.5191 12.4228 58.5191C12.937 58.5191 13.3543 58.1018 13.3543 57.5876V47.1242C13.3543 46.6553 13.0065 46.2603 12.542 46.2001L4.98995 45.2257C3.22061 45.0214 1.88215 43.532 1.86296 41.7546C1.86296 41.7496 3.50624 20.1333 3.50624 20.1333C3.56275 19.3936 3.93538 18.7136 4.52915 18.2689C5.12351 17.8236 5.87998 17.6565 6.60654 17.8099L6.71643 17.8329C7.40957 17.9795 8.01134 18.4056 8.38085 19.0099C9.79003 21.3165 12.6462 25.9918 13.2033 26.9041C13.2222 26.9338 13.2408 26.9624 13.2601 26.989Z" fill="#6F00FD"/>
<path fill-rule="evenodd" clip-rule="evenodd" d="M5.864 28.3442L8.85752 33.2449C9.98594 35.0919 12.2826 35.8558 14.293 35.0521C14.7705 34.8615 15.0035 34.3187 14.8122 33.8417C14.6216 33.3641 14.0787 33.1312 13.6018 33.3219C12.4355 33.7883 11.1027 33.3454 10.4474 32.2735L7.45399 27.3728C7.18569 26.9343 6.61179 26.7959 6.1734 27.0635C5.73482 27.3319 5.5957 27.9057 5.864 28.3442Z" fill="#6F00FD"/>
<path fill-rule="evenodd" clip-rule="evenodd" d="M43.6588 26.8288L34.6386 28.1044C32.2127 28.4473 30.5223 30.6954 30.8651 33.1213C31.2079 35.5464 33.4561 37.2376 35.8819 36.8947L46.9758 35.3253C47.4075 35.2644 47.8223 35.1415 48.2093 34.9632V36.9083L41.4944 37.6839C38.7723 37.9982 36.7179 40.3029 36.7179 43.0436V57.5874C36.7179 58.1017 37.1352 58.519 37.6494 58.519C38.1636 58.519 38.5809 58.1016 38.5809 57.5874V43.0436C38.5809 41.2494 39.9261 39.7402 41.7079 39.5346L49.2456 38.6639H49.2438C49.7102 38.6129 50.0722 38.218 50.0722 37.7385V33.0595C50.0722 32.6602 49.8176 32.3056 49.4394 32.1777C49.0612 32.0491 48.6432 32.1771 48.4004 32.4944C47.9924 33.0285 47.3881 33.3856 46.7148 33.4807L35.6209 35.0494C34.213 35.2487 32.9088 34.2675 32.71 32.8596C32.5107 31.4523 33.4919 30.1481 34.8992 29.9487L44.3523 28.6122L44.2244 28.6209L45.0193 28.175L50.0597 19.9243C50.7044 18.8697 51.885 18.2642 53.1179 18.3574C53.1353 18.3586 53.1521 18.3598 53.1694 18.3611C54.8301 18.4865 56.1361 19.8317 56.2119 21.4949L57.1366 41.7362C57.1267 43.5212 55.7852 45.0198 54.0096 45.2253L46.6148 46.0793C46.1496 46.1327 45.7968 46.5233 45.7906 46.9916L45.6453 57.5744C45.6384 58.0887 46.0501 58.5116 46.5638 58.519C47.0781 58.5258 47.501 58.1141 47.5084 57.5998L47.642 47.8356L54.2233 47.076C56.9454 46.7617 58.9998 44.4564 58.9998 41.7164C58.9998 41.702 58.9992 41.6878 58.9985 41.6735C58.9985 41.6735 58.3812 28.1569 58.0731 21.4098C57.9539 18.8051 55.9094 16.6992 53.3097 16.5035C53.2922 16.5022 53.2749 16.5003 53.2581 16.4991C51.328 16.3537 49.479 17.3014 48.4699 18.9529L43.6588 26.8288Z" fill="#6F00FD"/>
<path fill-rule="evenodd" clip-rule="evenodd" d="M38.2997 3.27537C38.2997 2.53449 38.0053 1.82333 37.4812 1.29921C36.957 0.774988 36.2466 0.480682 35.505 0.480682H22.5082C20.9643 0.480682 19.7134 1.73214 19.7134 3.27537V15.1151C19.7134 15.7237 20.0686 16.2765 20.6227 16.5286C21.1766 16.7807 21.8269 16.6857 22.2858 16.2857C23.182 15.5051 24.4446 14.4045 25.1482 13.791C25.3184 13.6432 25.5357 13.5619 25.7606 13.5619H35.5049C36.2465 13.5619 36.957 13.2675 37.4811 12.7433C38.0052 12.2191 38.2996 11.508 38.2996 10.7672V3.27537H38.2997ZM21.5766 14.4326V3.27537C21.5766 2.76119 21.9934 2.34384 22.5081 2.34384H35.5049C35.7521 2.34384 35.9893 2.44194 36.1639 2.6171C36.3384 2.79158 36.4366 3.02822 36.4366 3.27537V10.7672C36.4366 11.0143 36.3385 11.251 36.1639 11.4254C35.9894 11.6006 35.7521 11.6987 35.5049 11.6987H25.7607C25.0856 11.6987 24.4335 11.9427 23.9242 12.3862L21.5766 14.4326Z" fill="#6F00FD"/>
<path fill-rule="evenodd" clip-rule="evenodd" d="M24.8564 6.25146H33.2978C33.8121 6.25146 34.2293 5.83411 34.2293 5.31993C34.2293 4.80574 33.812 4.3884 33.2978 4.3884H24.8564C24.3422 4.3884 23.9249 4.80574 23.9249 5.31993C23.9249 5.83411 24.3421 6.25146 24.8564 6.25146Z" fill="#6F00FD"/>
<path fill-rule="evenodd" clip-rule="evenodd" d="M24.8564 9.64867H29.0069C29.5205 9.64867 29.9384 9.23133 29.9384 8.71714C29.9384 8.20286 29.5205 7.78561 29.0069 7.78561H24.8564C24.3422 7.78561 23.9249 8.20296 23.9249 8.71714C23.9248 9.23133 24.3421 9.64867 24.8564 9.64867Z" fill="#6F00FD"/>
<path fill-rule="evenodd" clip-rule="evenodd" d="M44.1767 35.7217L46.9758 35.3255C48.2893 35.1398 49.4507 34.3765 50.1426 33.245L53.136 28.3443C53.4043 27.9058 53.2652 27.332 52.8267 27.0637C52.3882 26.796 51.8144 26.9345 51.5461 27.373L48.5527 32.2737C48.1515 32.9301 47.4769 33.373 46.7149 33.481L43.9159 33.8767C43.4065 33.9488 43.0514 34.4208 43.1233 34.93C43.1954 35.4385 43.6674 35.7937 44.1767 35.7217Z" fill="#6F00FD"/>
</g>
<defs>
<clipPath id="clip0_3_92">
<rect width="59" height="59" fill="white"/>
</clipPath>
</defs>
</svg>
